<svg width="49" height="49" viewBox="0 0 49 49" fill="none" xmlns="http://www.w3.org/2000/svg">
<g clip-path="url(#clip0_301_867)">
<path d="M42.7889 8.24961C38.31 3.19648 31.7926 0 24.5 0C10.9676 0 0 10.9676 0 24.5H6.125C6.125 14.3459 14.3459 6.125 24.5 6.125C30.0986 6.125 35.0656 8.66113 38.4248 12.6137L32.6635 18.375H49V2.03848L42.7889 8.24961ZM24.5 42.875C18.9014 42.875 13.9344 40.3389 10.5752 36.3863L16.3365 30.625H0V46.9615L6.21113 40.7504C10.69 45.8035 17.217 49 24.5 49C38.0324 49 49 38.0324 49 24.5H42.875C42.875 34.6541 34.6541 42.875 24.5 42.875Z" fill="#22C55E"/>
<path d="M24.5 12V24.5H37" stroke="#22C55E" stroke-width="3"/>
</g>
<defs>
<clipPath id="clip0_301_867">
<rect width="49" height="49" fill="white"/>
</clipPath>
</defs>
</svg>
